:SAMPLES-PER-SECOND 30
:FULLY-SPECIFIED
:DEGREES
31
root  80.2874 40.4348 -6.19348 -173.731 -88.6211 175.117
RightUpLeg  -1.6042 -8.3022 -6.45196
RightLeg  2.17228 -0.868297 3.50169
RightFoot  -0.385272 -0.0355671 0.405741
RightToes  -5.8209e-011 0 -3.6325e-017
Spine  2.9193 -0.223177 0.445161
Spine1  1.40362 -0.195521 -0.225473
HEad  -2.47878 4.14011 -0.838537
LeftShoulder1  0.662894 0.0392413 -11.8291
LeftArm  -18.807 10.3186 -3.34636
LeftForeArm  18.946 -10.574 -2.14332
LeftHand  -0.244104 0.0205437 5.32207
RightShoulder  0.4402 -0.858231 9.25816
RightArm  -24.11 -0.559354 4.28232
RightForeArm  -6.52671 6.18637 3.50252
RightHand  -1.46377 4.35095 -17.6021
LeftUpLeg  -1.67543 6.20542 5.05252
LeftLeg  1.66768 9.5047 -4.14596
LeftFoot  -1.22432 0.142211 -1.51793
LeftToes  -6.09394e-011 -3.18376e-011 -2.71738e-012
32
root  80.264 40.4345 -6.18843 -173.581 -88.681 174.959
RightUpLeg  -1.53064 -8.28 -6.45851
RightLeg  2.13816 -0.926969 3.47077
RightFoot  -0.429704 -0.0470141 0.577478
RightToes  -5.8209e-011 0 -3.6325e-017
Spine  2.92885 -0.261691 0.499212
Spine1  1.4641 -0.232614 -0.244263
HEad  -2.18088 4.25372 -1.11341
LeftShoulder1  0.840936 -0.518469 -13.7749
LeftArm  -18.0315 11.4425 -4.69241
LeftForeArm  20.306 -13.2493 -2.59988
LeftHand  -0.244104 0.0205437 5.32207
RightShoulder  0.628107 -0.130879 11.4475
RightArm  -23.9346 -2.48613 5.68367
RightForeArm  -7.28155 9.17883 4.00348
RightHand  -1.39198 3.944 -17.4435
LeftUpLeg  -1.63015 6.21154 5.05159
LeftLeg  1.66262 9.43704 -4.152
LeftFoot  -1.26771 0.144063 -1.54955
LeftToes  -6.09394e-011 -3.18376e-011 -2.71738e-012
33
root  80.2419 40.4338 -6.18125 -174.881 -88.7313 176.253
RightUpLeg  -1.48391 -8.27938 -6.44181
RightLeg  2.15618 -0.995417 3.47319
RightFoot  -0.495661 -0.0418789 0.489983
RightToes  -5.8209e-011 0 -3.6325e-017
Spine  2.93273 -0.25758 0.65138
Spine1  1.50542 -0.228639 -0.248572
HEad  -1.96328 4.21741 -1.41409
LeftShoulder1  1.20628 -1.64083 -16.5774
LeftArm  -17.4725 12.5098 -5.879
LeftForeArm  21.6045 -14.896 -2.7887
LeftHand  -0.244104 0.0205437 5.32207
RightShoulder  0.936068 0.88259 14.4657
RightArm  -22.5888 -4.25147 6.56652
RightForeArm  -5.60647 11.506 4.40749
RightHand  -1.21125 3.38926 -16.1678
LeftUpLeg  -1.62161 6.21029 5.0662
LeftLeg  1.72093 9.40252 -4.11721
LeftFoot  -1.34557 0.145043 -1.56694
LeftToes  -6.09394e-011 -3.18376e-011 -2.71738e-012
34
root  80.2213 40.4312 -6.16724 -176.523 -88.7376 177.861
RightUpLeg  -1.4394 -8.30954 -6.44332
RightLeg  2.22335 -0.987468 3.50018
RightFoot  -0.553618 -0.0276214 0.259724
RightToes  -5.8209e-011 0 -3.6325e-017
Spine  2.80323 -0.217172 0.718874
Spine1  1.87294 -0.240383 0.00398817
HEad  -1.9493 4.06714 -1.90666
LeftShoulder1  1.72731 -2.94805 -20.2133
LeftArm  -17.4899 13.2729 -7.14783
LeftForeArm  22.8374 -15.5471 -2.7756
LeftHand  -0.244104 0.0205437 5.32207
RightShoulder  1.33473 2.00496 17.6421
RightArm  -20.5686 -5.64428 7.69318
RightForeArm  -3.50236 12.8796 4.64308
RightHand  -1.07314 2.8711 -15.2394
LeftUpLeg  -1.59431 6.20883 5.08109
LeftLeg  1.81665 9.38831 -4.07727
LeftFoot  -1.45557 0.145041 -1.56887
LeftToes  -6.09394e-011 -3.18376e-011 -2.71738e-012
35
root  80.2052 40.4251 -6.15518 -178.154 -88.729 179.421
RightUpLeg  -1.36138 -8.31877 -6.4486
RightLeg  2.27588 -0.940774 3.51494
RightFoot  -0.610775 -0.0292762 0.276009
RightToes  -5.8209e-011 0 -3.6325e-017
Spine  2.6032 -0.159657 0.701856
Spine1  2.55399 -0.27612 0.43479
HEad  -2.05162 4.06343 -2.57087
LeftShoulder1  2.31837 -4.08188 -24.2594
LeftArm  -17.3967 13.5112 -8.84012
LeftForeArm  23.1717 -15.3931 -2.79475
LeftHand  -0.244104 0.0205437 5.32207
RightShoulder  1.79475 3.11609 20.7463
RightArm  -18.562 -6.7865 9.3853
RightForeArm  -2.43147 13.5417 4.83011
RightHand  -0.968273 2.07075 -15.1996
LeftUpLeg  -1.54323 6.25306 5.1313
LeftLeg  1.95282 9.30351 -4.07234
LeftFoot  -1.58922 0.147852 -1.61477
LeftToes  -6.09394e-011 -3.18376e-011 -2.71738e-012
36
root  80.1929 40.4174 -6.15331 -179.225 -88.7048 -179.548
RightUpLeg  -1.35911 -8.29747 -6.43612
RightLeg  2.39998 -0.919012 3.50208
RightFoot  -0.751062 -0.0407074 0.444278
RightToes  -5.8209e-011 0 -3.6325e-017
Spine  2.3459 -0.160545 0.90131
Spine1  3.38861 -0.300825 0.500299
HEad  -2.37753 4.25301 -3.03557
LeftShoulder1  2.93929 -5.07449 -28.1118
LeftArm  -16.7849 13.3993 -10.9809
LeftForeArm  22.5254 -14.5145 -2.94658
LeftHand  -0.244104 0.0205437 5.32207
RightShoulder  2.34154 4.2195 24.1415
RightArm  -17.1911 -7.67953 11.3509
RightForeArm  -1.82722 13.5674 4.95471
RightHand  -0.875259 1.30777 -15.2577
LeftUpLeg  -1.5402 6.31764 5.19379
LeftLeg  2.1188 9.23131 -4.0791
LeftFoot  -1.72284 0.153133 -1.69975
LeftToes  -6.09394e-011 -3.18376e-011 -2.71738e-012
